<svg width="60" height="60" viewBox="0 0 60 60" fill="none" xmlns="http://www.w3.org/2000/svg">
<path d="M30.0064 6.26618L35.1755 0.851073C35.9843 0.12119 36.9337 -0.16774 38.0238 0.0959302C39.0084 0.3596 39.7702 1.13449 40.0164 2.12154L41.8801 9.44733L49.1473 7.39259C50.1318 7.11597 51.1868 7.39025 51.9018 8.10994C52.523 8.8308 52.8981 9.88454 52.6168 10.8644L50.5655 18.1328L57.8913 19.9965C58.8759 20.2426 59.6495 21.0045 59.9191 21.9891C60.177 22.9737 59.7902 23.9231 59.1572 24.7319L53.742 30.0064L59.1572 35.1755C59.7902 35.9843 60.177 36.9337 59.9191 38.0238C59.6495 39.0084 58.8759 39.7703 57.8913 40.0164L50.5655 41.8801L52.6168 49.1473C52.8981 50.1319 52.523 51.1868 51.9018 51.9018C51.1868 52.523 50.1318 52.8981 49.1473 52.6168L41.8801 50.5655L40.0164 57.8913C39.7702 58.8759 39.0084 59.6495 38.0238 59.9191C36.9337 60.177 35.9843 59.7902 35.1755 59.1572L30.0064 53.742L24.7319 59.1572C23.9231 59.7902 22.9737 60.177 21.9891 59.9191C21.0045 59.6495 20.2426 58.8759 19.9965 57.8913L18.1328 50.5655L10.8644 52.6168C9.88453 52.8981 8.83079 52.523 8.10993 51.9018C7.39025 51.1868 7.11597 50.1319 7.39259 49.1473L9.44733 41.8801L2.12154 40.0164C1.13449 39.7703 0.359595 39.0084 0.0959369 38.0238C-0.167745 36.9337 0.121184 35.9843 0.851068 35.1755L6.26618 30.0064L0.851068 24.7319C0.121184 23.9231 -0.167745 22.9737 0.0959369 21.9891C0.359595 21.0045 1.13449 20.2426 2.12154 19.9965L9.44733 18.1328L7.39259 10.8644C7.11597 9.88454 7.39025 8.8308 8.10993 8.10994C8.83079 7.39025 9.88453 7.11597 10.8644 7.39259L18.1328 9.44733L19.9965 2.12154C20.2426 1.13449 21.0045 0.3596 21.9891 0.0959302C22.9737 -0.16774 23.9231 0.12119 24.7319 0.851073L30.0064 6.26618Z" fill="#23262E"/>
</svg>
