<svg width="376" height="60" viewBox="0 0 376 60" fill="none" xmlns="http://www.w3.org/2000/svg">
<path d="M30.0064 6.26618L35.1755 0.851073C35.9843 0.12119 36.9337 -0.16774 38.0238 0.0959302C39.0084 0.3596 39.7702 1.13449 40.0164 2.12154L41.8801 9.44733L49.1473 7.39259C50.1318 7.11597 51.1868 7.39025 51.9018 8.10994C52.523 8.8308 52.8981 9.88454 52.6168 10.8644L50.5655 18.1328L57.8913 19.9965C58.8759 20.2426 59.6495 21.0045 59.9191 21.9891C60.177 22.9737 59.7902 23.9231 59.1572 24.7319L53.742 30.0064L59.1572 35.1755C59.7902 35.9843 60.177 36.9337 59.9191 38.0238C59.6495 39.0084 58.8759 39.7703 57.8913 40.0164L50.5655 41.8801L52.6168 49.1473C52.8981 50.1319 52.523 51.1868 51.9018 51.9018C51.1868 52.523 50.1318 52.8981 49.1473 52.6168L41.8801 50.5655L40.0164 57.8913C39.7702 58.8759 39.0084 59.6495 38.0238 59.9191C36.9337 60.177 35.9843 59.7902 35.1755 59.1572L30.0064 53.742L24.7319 59.1572C23.9231 59.7902 22.9737 60.177 21.9891 59.9191C21.0045 59.6495 20.2426 58.8759 19.9965 57.8913L18.1328 50.5655L10.8644 52.6168C9.88453 52.8981 8.83079 52.523 8.10993 51.9018C7.39025 51.1868 7.11597 50.1319 7.39259 49.1473L9.44733 41.8801L2.12154 40.0164C1.13449 39.7703 0.359595 39.0084 0.0959369 38.0238C-0.167745 36.9337 0.121184 35.9843 0.851068 35.1755L6.26618 30.0064L0.851068 24.7319C0.121184 23.9231 -0.167745 22.9737 0.0959369 21.9891C0.359595 21.0045 1.13449 20.2426 2.12154 19.9965L9.44733 18.1328L7.39259 10.8644C7.11597 9.88454 7.39025 8.8308 8.10993 8.10994C8.83079 7.39025 9.88453 7.11597 10.8644 7.39259L18.1328 9.44733L19.9965 2.12154C20.2426 1.13449 21.0045 0.3596 21.9891 0.0959302C22.9737 -0.16774 23.9231 0.12119 24.7319 0.851073L30.0064 6.26618Z" fill="#23262E"/>
<path d="M79.0341 47V12.0909H93.0114C95.5795 12.0909 97.7216 12.4716 99.4375 13.233C101.153 13.9943 102.443 15.0511 103.307 16.4034C104.17 17.7443 104.602 19.2898 104.602 21.0398C104.602 22.4034 104.33 23.6023 103.784 24.6364C103.239 25.6591 102.489 26.5 101.534 27.1591C100.591 27.8068 99.5114 28.267 98.2955 28.5398V28.8807C99.625 28.9375 100.869 29.3125 102.028 30.0057C103.199 30.6989 104.148 31.6705 104.875 32.9205C105.602 34.1591 105.966 35.6364 105.966 37.3523C105.966 39.2045 105.506 40.858 104.585 42.3125C103.676 43.7557 102.33 44.8977 100.545 45.7386C98.7614 46.5795 96.5625 47 93.9489 47H79.0341ZM86.4148 40.9659H92.4318C94.4886 40.9659 95.9886 40.5739 96.9318 39.7898C97.875 38.9943 98.3466 37.9375 98.3466 36.6193C98.3466 35.6534 98.1136 34.8011 97.6477 34.0625C97.1818 33.3239 96.517 32.7443 95.6534 32.3239C94.8011 31.9034 93.7841 31.6932 92.6023 31.6932H86.4148V40.9659ZM86.4148 26.6989H91.8864C92.8977 26.6989 93.7955 26.5227 94.5795 26.1705C95.375 25.8068 96 25.2955 96.4545 24.6364C96.9205 23.9773 97.1534 23.1875 97.1534 22.267C97.1534 21.0057 96.7045 19.9886 95.8068 19.2159C94.9205 18.4432 93.6591 18.0568 92.0227 18.0568H86.4148V26.6989ZM118.098 47.4943C116.428 47.4943 114.939 47.2045 113.632 46.625C112.325 46.0341 111.291 45.1648 110.53 44.017C109.78 42.858 109.405 41.4148 109.405 39.6875C109.405 38.233 109.672 37.0114 110.206 36.0227C110.74 35.0341 111.467 34.2386 112.388 33.6364C113.308 33.0341 114.354 32.5795 115.524 32.2727C116.706 31.9659 117.945 31.75 119.24 31.625C120.763 31.4659 121.99 31.3182 122.922 31.1818C123.854 31.0341 124.53 30.8182 124.95 30.5341C125.371 30.25 125.581 29.8295 125.581 29.2727V29.1705C125.581 28.0909 125.24 27.2557 124.558 26.6648C123.888 26.0739 122.933 25.7784 121.695 25.7784C120.388 25.7784 119.348 26.0682 118.575 26.6477C117.803 27.2159 117.291 27.9318 117.041 28.7955L110.325 28.25C110.666 26.6591 111.337 25.2841 112.337 24.125C113.337 22.9545 114.626 22.0568 116.206 21.4318C117.797 20.7955 119.638 20.4773 121.729 20.4773C123.183 20.4773 124.575 20.6477 125.905 20.9886C127.246 21.3295 128.433 21.858 129.467 22.5739C130.513 23.2898 131.337 24.2102 131.939 25.3352C132.541 26.4489 132.842 27.7841 132.842 29.3409V47H125.956V43.3693H125.751C125.331 44.1875 124.768 44.9091 124.064 45.5341C123.359 46.1477 122.513 46.6307 121.524 46.983C120.536 47.3239 119.393 47.4943 118.098 47.4943ZM120.178 42.483C121.246 42.483 122.189 42.2727 123.007 41.8523C123.825 41.4205 124.467 40.8409 124.933 40.1136C125.399 39.3864 125.632 38.5625 125.632 37.642V34.8636C125.405 35.0114 125.092 35.1477 124.695 35.2727C124.308 35.3864 123.871 35.4943 123.382 35.5966C122.893 35.6875 122.405 35.7727 121.916 35.8523C121.428 35.9205 120.984 35.983 120.587 36.0398C119.734 36.1648 118.99 36.3636 118.354 36.6364C117.717 36.9091 117.223 37.2784 116.871 37.7443C116.518 38.1989 116.342 38.767 116.342 39.4489C116.342 40.4375 116.7 41.1932 117.416 41.7159C118.143 42.2273 119.064 42.483 120.178 42.483ZM148.124 47.4261C146.135 47.4261 144.334 46.9148 142.72 45.892C141.118 44.858 139.845 43.3409 138.902 41.3409C137.97 39.3295 137.504 36.8636 137.504 33.9432C137.504 30.9432 137.987 28.4489 138.953 26.4602C139.919 24.4602 141.203 22.9659 142.805 21.9773C144.419 20.9773 146.186 20.4773 148.107 20.4773C149.572 20.4773 150.794 20.7273 151.771 21.2273C152.76 21.7159 153.555 22.3295 154.158 23.0682C154.771 23.7955 155.237 24.5114 155.555 25.2159H155.777V12.0909H163.021V47H155.862V42.8068H155.555C155.214 43.5341 154.732 44.2557 154.107 44.9716C153.493 45.6761 152.692 46.2614 151.703 46.7273C150.726 47.1932 149.533 47.4261 148.124 47.4261ZM150.425 41.6477C151.595 41.6477 152.584 41.3295 153.391 40.6932C154.209 40.0455 154.834 39.142 155.266 37.983C155.709 36.8239 155.93 35.4659 155.93 33.9091C155.93 32.3523 155.714 31 155.283 29.8523C154.851 28.7045 154.226 27.8182 153.408 27.1932C152.589 26.5682 151.595 26.2557 150.425 26.2557C149.232 26.2557 148.226 26.5795 147.408 27.2273C146.589 27.875 145.97 28.7727 145.55 29.9205C145.129 31.0682 144.919 32.3977 144.919 33.9091C144.919 35.4318 145.129 36.7784 145.55 37.9489C145.982 39.108 146.601 40.017 147.408 40.6761C148.226 41.3239 149.232 41.6477 150.425 41.6477ZM180.787 57.3636C178.435 57.3636 176.418 57.0398 174.736 56.392C173.065 55.7557 171.736 54.8864 170.747 53.7841C169.759 52.6818 169.116 51.4432 168.821 50.0682L175.537 49.1648C175.741 49.6875 176.065 50.1761 176.509 50.6307C176.952 51.0852 177.537 51.4489 178.264 51.7216C179.003 52.0057 179.901 52.1477 180.957 52.1477C182.537 52.1477 183.838 51.7614 184.861 50.9886C185.895 50.2273 186.412 48.9489 186.412 47.1534V42.3636H186.105C185.787 43.0909 185.31 43.7784 184.673 44.4261C184.037 45.0739 183.219 45.6023 182.219 46.0114C181.219 46.4205 180.026 46.625 178.639 46.625C176.673 46.625 174.884 46.1705 173.27 45.2614C171.668 44.3409 170.389 42.9375 169.435 41.0511C168.491 39.1534 168.02 36.7557 168.02 33.858C168.02 30.892 168.503 28.4148 169.469 26.4261C170.435 24.4375 171.719 22.9489 173.321 21.9602C174.935 20.9716 176.702 20.4773 178.622 20.4773C180.088 20.4773 181.315 20.7273 182.304 21.2273C183.293 21.7159 184.088 22.3295 184.69 23.0682C185.304 23.7955 185.776 24.5114 186.105 25.2159H186.378V20.8182H193.588V47.2557C193.588 49.483 193.043 51.3466 191.952 52.8466C190.861 54.3466 189.349 55.4716 187.418 56.2216C185.497 56.983 183.287 57.3636 180.787 57.3636ZM180.94 41.1705C182.111 41.1705 183.099 40.8807 183.906 40.3011C184.724 39.7102 185.349 38.8693 185.781 37.7784C186.224 36.6761 186.446 35.358 186.446 33.8239C186.446 32.2898 186.23 30.9602 185.798 29.8352C185.366 28.6989 184.741 27.8182 183.923 27.1932C183.105 26.5682 182.111 26.2557 180.94 26.2557C179.747 26.2557 178.741 26.5795 177.923 27.2273C177.105 27.8636 176.486 28.75 176.065 29.8864C175.645 31.0227 175.435 32.3352 175.435 33.8239C175.435 35.3352 175.645 36.642 176.065 37.7443C176.497 38.8352 177.116 39.6818 177.923 40.2841C178.741 40.875 179.747 41.1705 180.94 41.1705ZM211.298 47.5114C208.605 47.5114 206.287 46.9659 204.344 45.875C202.412 44.7727 200.923 43.2159 199.878 41.2045C198.832 39.1818 198.31 36.7898 198.31 34.0284C198.31 31.3352 198.832 28.9716 199.878 26.9375C200.923 24.9034 202.395 23.3182 204.293 22.1818C206.202 21.0455 208.44 20.4773 211.009 20.4773C212.736 20.4773 214.344 20.7557 215.832 21.3125C217.332 21.858 218.639 22.6818 219.753 23.7841C220.878 24.8864 221.753 26.2727 222.378 27.9432C223.003 29.6023 223.315 31.5455 223.315 33.7727V35.767H201.207V31.267H216.48C216.48 30.2216 216.253 29.2955 215.798 28.4886C215.344 27.6818 214.713 27.0511 213.906 26.5966C213.111 26.1307 212.185 25.8977 211.128 25.8977C210.026 25.8977 209.048 26.1534 208.196 26.6648C207.355 27.1648 206.696 27.8409 206.219 28.6932C205.741 29.5341 205.497 30.4716 205.486 31.5057V35.7841C205.486 37.0795 205.724 38.1989 206.202 39.142C206.69 40.0852 207.378 40.8125 208.264 41.3239C209.151 41.8352 210.202 42.0909 211.418 42.0909C212.224 42.0909 212.963 41.9773 213.634 41.75C214.304 41.5227 214.878 41.1818 215.355 40.7273C215.832 40.2727 216.196 39.7159 216.446 39.0568L223.162 39.5C222.821 41.1136 222.122 42.5227 221.065 43.7273C220.02 44.9205 218.668 45.8523 217.009 46.5227C215.361 47.1818 213.457 47.5114 211.298 47.5114ZM228.19 47V12.0909H242.168C244.736 12.0909 246.878 12.4716 248.594 13.233C250.31 13.9943 251.599 15.0511 252.463 16.4034C253.327 17.7443 253.759 19.2898 253.759 21.0398C253.759 22.4034 253.486 23.6023 252.94 24.6364C252.395 25.6591 251.645 26.5 250.69 27.1591C249.747 27.8068 248.668 28.267 247.452 28.5398V28.8807C248.781 28.9375 250.026 29.3125 251.185 30.0057C252.355 30.6989 253.304 31.6705 254.031 32.9205C254.759 34.1591 255.122 35.6364 255.122 37.3523C255.122 39.2045 254.662 40.858 253.741 42.3125C252.832 43.7557 251.486 44.8977 249.702 45.7386C247.918 46.5795 245.719 47 243.105 47H228.19ZM235.571 40.9659H241.588C243.645 40.9659 245.145 40.5739 246.088 39.7898C247.031 38.9943 247.503 37.9375 247.503 36.6193C247.503 35.6534 247.27 34.8011 246.804 34.0625C246.338 33.3239 245.673 32.7443 244.81 32.3239C243.957 31.9034 242.94 31.6932 241.759 31.6932H235.571V40.9659ZM235.571 26.6989H241.043C242.054 26.6989 242.952 26.5227 243.736 26.1705C244.531 25.8068 245.156 25.2955 245.611 24.6364C246.077 23.9773 246.31 23.1875 246.31 22.267C246.31 21.0057 245.861 19.9886 244.963 19.2159C244.077 18.4432 242.815 18.0568 241.179 18.0568H235.571V26.6989ZM276.578 35.8523V20.8182H283.839V47H276.868V42.2443H276.595C276.004 43.7784 275.021 45.0114 273.646 45.9432C272.283 46.875 270.618 47.3409 268.652 47.3409C266.902 47.3409 265.362 46.9432 264.033 46.1477C262.703 45.3523 261.663 44.2216 260.913 42.7557C260.175 41.2898 259.8 39.5341 259.788 37.4886V20.8182H267.05V36.1932C267.061 37.7386 267.476 38.9602 268.294 39.858C269.112 40.7557 270.209 41.2045 271.584 41.2045C272.459 41.2045 273.277 41.0057 274.038 40.608C274.8 40.1989 275.413 39.5966 275.879 38.8011C276.357 38.0057 276.589 37.0227 276.578 35.8523ZM299.295 47.4261C297.307 47.4261 295.506 46.9148 293.892 45.892C292.29 44.858 291.017 43.3409 290.074 41.3409C289.142 39.3295 288.676 36.8636 288.676 33.9432C288.676 30.9432 289.159 28.4489 290.125 26.4602C291.091 24.4602 292.375 22.9659 293.977 21.9773C295.591 20.9773 297.358 20.4773 299.278 20.4773C300.744 20.4773 301.966 20.7273 302.943 21.2273C303.932 21.7159 304.727 22.3295 305.33 23.0682C305.943 23.7955 306.409 24.5114 306.727 25.2159H306.949V12.0909H314.193V47H307.034V42.8068H306.727C306.386 43.5341 305.903 44.2557 305.278 44.9716C304.665 45.6761 303.864 46.2614 302.875 46.7273C301.898 47.1932 300.705 47.4261 299.295 47.4261ZM301.597 41.6477C302.767 41.6477 303.756 41.3295 304.562 40.6932C305.381 40.0455 306.006 39.142 306.438 37.983C306.881 36.8239 307.102 35.4659 307.102 33.9091C307.102 32.3523 306.886 31 306.455 29.8523C306.023 28.7045 305.398 27.8182 304.58 27.1932C303.761 26.5682 302.767 26.2557 301.597 26.2557C300.403 26.2557 299.398 26.5795 298.58 27.2273C297.761 27.875 297.142 28.7727 296.722 29.9205C296.301 31.0682 296.091 32.3977 296.091 33.9091C296.091 35.4318 296.301 36.7784 296.722 37.9489C297.153 39.108 297.773 40.017 298.58 40.6761C299.398 41.3239 300.403 41.6477 301.597 41.6477ZM329.811 47.4261C327.822 47.4261 326.021 46.9148 324.408 45.892C322.805 44.858 321.533 43.3409 320.589 41.3409C319.658 39.3295 319.192 36.8636 319.192 33.9432C319.192 30.9432 319.675 28.4489 320.641 26.4602C321.607 24.4602 322.891 22.9659 324.493 21.9773C326.107 20.9773 327.874 20.4773 329.794 20.4773C331.26 20.4773 332.482 20.7273 333.459 21.2273C334.447 21.7159 335.243 22.3295 335.845 23.0682C336.459 23.7955 336.925 24.5114 337.243 25.2159H337.464V12.0909H344.709V47H337.55V42.8068H337.243C336.902 43.5341 336.419 44.2557 335.794 44.9716C335.18 45.6761 334.379 46.2614 333.391 46.7273C332.413 47.1932 331.22 47.4261 329.811 47.4261ZM332.112 41.6477C333.283 41.6477 334.271 41.3295 335.078 40.6932C335.896 40.0455 336.521 39.142 336.953 37.983C337.396 36.8239 337.618 35.4659 337.618 33.9091C337.618 32.3523 337.402 31 336.97 29.8523C336.538 28.7045 335.913 27.8182 335.095 27.1932C334.277 26.5682 333.283 26.2557 332.112 26.2557C330.919 26.2557 329.913 26.5795 329.095 27.2273C328.277 27.875 327.658 28.7727 327.237 29.9205C326.817 31.0682 326.607 32.3977 326.607 33.9091C326.607 35.4318 326.817 36.7784 327.237 37.9489C327.669 39.108 328.288 40.017 329.095 40.6761C329.913 41.3239 330.919 41.6477 332.112 41.6477ZM355.162 56.8182C354.241 56.8182 353.378 56.7443 352.571 56.5966C351.776 56.4602 351.116 56.2841 350.594 56.0682L352.23 50.6477C353.082 50.9091 353.849 51.0511 354.531 51.0739C355.224 51.0966 355.821 50.9375 356.321 50.5966C356.832 50.2557 357.247 49.6761 357.565 48.858L357.991 47.75L348.599 20.8182H356.236L361.656 40.0455H361.929L367.401 20.8182H375.088L364.912 49.8295C364.423 51.2386 363.759 52.4659 362.918 53.5114C362.088 54.5682 361.037 55.3807 359.764 55.9489C358.491 56.5284 356.957 56.8182 355.162 56.8182Z" fill="#23262E"/>
</svg>
